<svg xmlns="http://www.w3.org/2000/svg" width="17" height="17" fill="none">
<g fill="#2B2B2B" clip-path="url(#a)">
  <path d="M8.5 0C3.815 0 .002 3.813.002 8.5c0 4.687 3.813 8.5 8.5 8.5 4.687 0 8.5-3.813 8.5-8.5C17 3.813 13.188 0 8.5 0Zm0 15.781c-4.014 0-7.28-3.266-7.28-7.281S4.485 1.218 8.5 1.218c4.016 0 7.282 3.267 7.282 7.282 0 4.015-3.266 7.281-7.281 7.281Z"/><path d="M12.871 8.357H8.877V3.991a.61.61 0 1 0-1.219 0v4.976c0 .336.273.609.61.609h4.603a.61.61 0 1 0 0-1.219Z"/></g>
  <defs>
    <clipPath id="a">
    <path fill="#fff" d="M0 0h17v17H0z"/></clipPath>
  </defs>
</svg>